<svg width="24" height="24" viewBox="0 0 24 24" fill="none" xmlns="http://www.w3.org/2000/svg">
<path d="M13.7312 12.0035L7.0068 5.53883C6.82165 5.36125 6.71979 5.12383 6.71979 4.87067C6.71979 4.61737 6.82165 4.38009 7.0068 4.20223L7.59603 3.63606C7.7809 3.45793 8.02802 3.35987 8.29136 3.35987C8.55471 3.35987 8.80153 3.45793 8.98655 3.63606L16.9931 11.3328C17.1788 11.5112 17.2805 11.7497 17.2798 12.0031C17.2805 12.2577 17.1789 12.4958 16.9931 12.6743L8.994 20.3637C8.80899 20.5418 8.56216 20.6399 8.29867 20.6399C8.03533 20.6399 7.7885 20.5418 7.60334 20.3637L7.01426 19.7975C6.63094 19.429 6.63094 18.8291 7.01426 18.4608L13.7312 12.0035Z" fill="#3E66DF"/>
</svg>
