<svg width="160" height="56" viewBox="0 0 160 56" fill="none" xmlns="http://www.w3.org/2000/svg">
<rect width="160" height="56" rx="8" fill="#D5FF70"/>
<path d="M28.0892 34V21.4H29.8892V32.434H36.7112V34H28.0892ZM42.6497 34.108C41.6297 34.108 40.7297 33.898 39.9497 33.478C39.1817 33.058 38.5817 32.482 38.1497 31.75C37.7297 31.018 37.5197 30.178 37.5197 29.23C37.5197 28.282 37.7237 27.442 38.1317 26.71C38.5517 25.978 39.1217 25.408 39.8417 25C40.5737 24.58 41.3957 24.37 42.3077 24.37C43.2317 24.37 44.0477 24.574 44.7557 24.982C45.4637 25.39 46.0157 25.966 46.4117 26.71C46.8197 27.442 47.0237 28.3 47.0237 29.284C47.0237 29.356 47.0177 29.44 47.0057 29.536C47.0057 29.632 46.9997 29.722 46.9877 29.806H38.8697V28.564H46.0877L45.3857 28.996C45.3977 28.384 45.2717 27.838 45.0077 27.358C44.7437 26.878 44.3777 26.506 43.9097 26.242C43.4537 25.966 42.9197 25.828 42.3077 25.828C41.7077 25.828 41.1737 25.966 40.7057 26.242C40.2377 26.506 39.8717 26.884 39.6077 27.376C39.3437 27.856 39.2117 28.408 39.2117 29.032V29.32C39.2117 29.956 39.3557 30.526 39.6437 31.03C39.9437 31.522 40.3577 31.906 40.8857 32.182C41.4137 32.458 42.0197 32.596 42.7037 32.596C43.2677 32.596 43.7777 32.5 44.2337 32.308C44.7017 32.116 45.1097 31.828 45.4577 31.444L46.4117 32.56C45.9797 33.064 45.4397 33.448 44.7917 33.712C44.1557 33.976 43.4417 34.108 42.6497 34.108ZM52.6992 34.108C51.7392 34.108 50.9952 33.85 50.4672 33.334C49.9392 32.818 49.6752 32.08 49.6752 31.12V22.372H51.4032V31.048C51.4032 31.564 51.5292 31.96 51.7812 32.236C52.0452 32.512 52.4172 32.65 52.8972 32.65C53.4372 32.65 53.8872 32.5 54.2472 32.2L54.7872 33.442C54.5232 33.67 54.2052 33.838 53.8332 33.946C53.4732 34.054 53.0952 34.108 52.6992 34.108ZM48.0552 25.882V24.46H54.1392V25.882H48.0552ZM56.1923 25.558L57.0923 21.904L57.3263 22.948C56.9783 22.948 56.6843 22.84 56.4443 22.624C56.2163 22.408 56.1023 22.12 56.1023 21.76C56.1023 21.388 56.2163 21.094 56.4443 20.878C56.6843 20.65 56.9723 20.536 57.3083 20.536C57.6563 20.536 57.9383 20.656 58.1543 20.896C58.3703 21.124 58.4783 21.412 58.4783 21.76C58.4783 21.868 58.4723 21.982 58.4603 22.102C58.4483 22.21 58.4183 22.336 58.3703 22.48C58.3343 22.624 58.2743 22.81 58.1903 23.038L57.3263 25.558H56.1923ZM63.3916 34.108C62.5996 34.108 61.8436 34 61.1236 33.784C60.4156 33.568 59.8576 33.304 59.4496 32.992L60.1696 31.624C60.5776 31.9 61.0816 32.134 61.6816 32.326C62.2816 32.518 62.8936 32.614 63.5176 32.614C64.3216 32.614 64.8976 32.5 65.2456 32.272C65.6056 32.044 65.7856 31.726 65.7856 31.318C65.7856 31.018 65.6776 30.784 65.4616 30.616C65.2456 30.448 64.9576 30.322 64.5976 30.238C64.2496 30.154 63.8596 30.082 63.4276 30.022C62.9956 29.95 62.5636 29.866 62.1316 29.77C61.6996 29.662 61.3036 29.518 60.9436 29.338C60.5836 29.146 60.2956 28.888 60.0796 28.564C59.8636 28.228 59.7556 27.784 59.7556 27.232C59.7556 26.656 59.9176 26.152 60.2416 25.72C60.5656 25.288 61.0216 24.958 61.6096 24.73C62.2096 24.49 62.9176 24.37 63.7336 24.37C64.3576 24.37 64.9876 24.448 65.6236 24.604C66.2716 24.748 66.7996 24.958 67.2076 25.234L66.4696 26.602C66.0376 26.314 65.5876 26.116 65.1196 26.008C64.6516 25.9 64.1836 25.846 63.7156 25.846C62.9596 25.846 62.3956 25.972 62.0236 26.224C61.6516 26.464 61.4656 26.776 61.4656 27.16C61.4656 27.484 61.5736 27.736 61.7896 27.916C62.0176 28.084 62.3056 28.216 62.6536 28.312C63.0136 28.408 63.4096 28.492 63.8416 28.564C64.2736 28.624 64.7056 28.708 65.1376 28.816C65.5696 28.912 65.9596 29.05 66.3076 29.23C66.6676 29.41 66.9556 29.662 67.1716 29.986C67.3996 30.31 67.5136 30.742 67.5136 31.282C67.5136 31.858 67.3456 32.356 67.0096 32.776C66.6736 33.196 66.1996 33.526 65.5876 33.766C64.9756 33.994 64.2436 34.108 63.3916 34.108ZM77.2611 34V22.966H72.9411V21.4H83.3631V22.966H79.0431V34H77.2611ZM90.4838 34V31.984L90.3938 31.606V28.168C90.3938 27.436 90.1778 26.872 89.7458 26.476C89.3258 26.068 88.6898 25.864 87.8378 25.864C87.2738 25.864 86.7218 25.96 86.1818 26.152C85.6418 26.332 85.1858 26.578 84.8138 26.89L84.0938 25.594C84.5858 25.198 85.1738 24.898 85.8578 24.694C86.5538 24.478 87.2798 24.37 88.0358 24.37C89.3438 24.37 90.3518 24.688 91.0598 25.324C91.7678 25.96 92.1218 26.932 92.1218 28.24V34H90.4838ZM87.3518 34.108C86.6438 34.108 86.0198 33.988 85.4798 33.748C84.9518 33.508 84.5438 33.178 84.2558 32.758C83.9678 32.326 83.8238 31.84 83.8238 31.3C83.8238 30.784 83.9438 30.316 84.1838 29.896C84.4358 29.476 84.8378 29.14 85.3898 28.888C85.9538 28.636 86.7098 28.51 87.6578 28.51H90.6818V29.752H87.7298C86.8658 29.752 86.2838 29.896 85.9838 30.184C85.6838 30.472 85.5338 30.82 85.5338 31.228C85.5338 31.696 85.7198 32.074 86.0918 32.362C86.4638 32.638 86.9798 32.776 87.6398 32.776C88.2878 32.776 88.8518 32.632 89.3318 32.344C89.8238 32.056 90.1778 31.636 90.3938 31.084L90.7358 32.272C90.5078 32.836 90.1058 33.286 89.5298 33.622C88.9538 33.946 88.2278 34.108 87.3518 34.108ZM95.3196 34V20.644H97.0476V34H95.3196ZM101.751 31.696L101.787 29.482L107.277 24.46H109.365L105.153 28.6L104.217 29.392L101.751 31.696ZM100.347 34V20.644H102.075V34H100.347ZM107.637 34L103.893 29.356L105.009 27.97L109.761 34H107.637Z" fill="#1F1F1F"/>
<path d="M114 28H130M130 28L124 34M130 28L124 22" stroke="black" stroke-width="1.5" stroke-linecap="round" stroke-linejoin="round"/>
</svg>
