<svg width="24" height="24" viewBox="0 0 24 24" fill="none" xmlns="http://www.w3.org/2000/svg">
<path d="M10.2688 11.9965L16.9932 18.4612C17.1784 18.6387 17.2802 18.8762 17.2802 19.1293C17.2802 19.3826 17.1784 19.6199 16.9932 19.7978L16.404 20.3639C16.2191 20.5421 15.972 20.6401 15.7086 20.6401C15.4453 20.6401 15.1985 20.5421 15.0135 20.3639L7.00694 12.6672C6.8212 12.4888 6.71949 12.2503 6.72022 11.9969C6.71949 11.7423 6.82105 11.5042 7.00694 11.3257L15.006 3.63633C15.191 3.45819 15.4378 3.36013 15.7013 3.36013C15.9647 3.36013 16.2115 3.45819 16.3967 3.63633L16.9857 4.2025C17.3691 4.571 17.3691 5.17088 16.9857 5.53924L10.2688 11.9965Z" fill="#808080"/>
</svg>
