<svg width="49" height="49" viewBox="0 0 49 49" fill="none" xmlns="http://www.w3.org/2000/svg">
<circle cx="24.5" cy="24.5" r="24.5" fill="#D9D9D9"/>
<path d="M36.8209 24.8542C36.2223 24.8542 35.7369 24.3689 35.7369 23.7703V13.6531C35.7369 13.0544 36.2223 12.5691 36.8209 12.5691C37.4196 12.5691 37.9049 13.0544 37.9049 13.6531V23.7703C37.9049 24.3689 37.4196 24.8542 36.8209 24.8542Z" fill="#00347B"/>
<path d="M12.1787 24.8542C11.5801 24.8542 11.0947 24.3689 11.0947 23.7703V13.6531C11.0947 13.0544 11.5801 12.5691 12.1787 12.5691C12.7774 12.5691 13.2627 13.0544 13.2627 13.6531V23.7703C13.2627 24.3689 12.7774 24.8542 12.1787 24.8542ZM36.2781 40.646H31.7258C31.1272 40.646 30.6419 40.1606 30.6419 39.562C30.6419 38.9633 31.1272 38.478 31.7258 38.478H36.2781C38.7464 38.478 40.8318 36.4426 40.8318 34.0335V26.229C40.8318 25.6303 41.3172 25.145 41.9158 25.145C42.5144 25.145 42.9998 25.6303 42.9998 26.229V34.0334C42.9998 37.6178 39.9216 40.646 36.2781 40.646Z" fill="#00429D"/>
<path d="M13.1543 19.9216H9.25195C7.45883 19.9216 6 21.3805 6 23.1736V27.5818C6 29.3749 7.45883 30.8337 9.25195 30.8337H13.1543C13.7529 30.8337 14.2383 30.3484 14.2383 29.7498V21.0056C14.2383 20.407 13.7529 19.9216 13.1543 19.9216Z" fill="#4793FF"/>
<path d="M39.748 19.9216H35.8457C35.2471 19.9216 34.7617 20.407 34.7617 21.0056V29.7498C34.7617 30.3484 35.2471 30.8337 35.8457 30.8337H39.748C41.5412 30.8337 43 29.3749 43 27.5818V23.1736C43 21.3805 41.5412 19.9216 39.748 19.9216Z" fill="#525CDD"/>
<path d="M34.5031 14.8616C31.8382 12.2426 28.2858 10.8003 24.5 10.8003C20.7115 10.8003 17.1578 12.2428 14.4939 14.8621C11.8126 17.4984 10.3359 21.0349 10.3359 24.82V26.9153C10.3359 30.8603 13.5455 34.0698 17.4905 34.0698H31.5096C35.4546 34.0698 38.6641 30.8603 38.6641 26.9153V24.82C38.6641 21.0353 37.1864 17.4987 34.5031 14.8616Z" fill="#F0F5FA"/>
<path d="M34.5031 14.8616C31.8382 12.2426 28.2858 10.8003 24.5 10.8003V34.0698H31.5095C35.4546 34.0698 38.6641 30.8603 38.6641 26.9153V24.82C38.6641 21.0353 37.1864 17.4987 34.5031 14.8616Z" fill="#D7E3F0"/>
<path d="M28.9443 17.8823H20.0557C16.4894 17.8823 13.5879 20.7837 13.5879 24.3501C13.5879 27.9164 16.4893 30.8179 20.0557 30.8179H28.9443C32.5106 30.8179 35.4121 27.9165 35.4121 24.3501C35.4121 20.7837 32.5106 17.8823 28.9443 17.8823Z" fill="#D7E3F0"/>
<path d="M28.9443 17.8823H24.5V30.8179H28.9443C32.5106 30.8179 35.4121 27.9165 35.4121 24.3501C35.4121 20.7837 32.5106 17.8823 28.9443 17.8823Z" fill="#A0B6DB"/>
<path fill-rule="evenodd" clip-rule="evenodd" d="M28.9443 20.0503H20.0557C17.6908 20.0503 15.7559 21.9852 15.7559 24.3501C15.7559 26.715 17.6908 28.6499 20.0557 28.6499H28.9443C31.3092 28.6499 33.2441 26.7151 33.2441 24.3501C33.2441 21.9851 31.3092 20.0503 28.9443 20.0503Z" fill="#00429D"/>
<path fill-rule="evenodd" clip-rule="evenodd" d="M28.9443 20.0503H24.5V28.6499H28.9443C31.3092 28.6499 33.2441 26.7151 33.2441 24.3501C33.2441 21.9851 31.3092 20.0503 28.9443 20.0503Z" fill="#00347B"/>
<path d="M20.2968 25.8315C19.6981 25.8315 19.2128 25.3462 19.2128 24.7476V23.9526C19.2128 23.354 19.6981 22.8687 20.2968 22.8687C20.8954 22.8687 21.3807 23.354 21.3807 23.9526V24.7476C21.3807 25.3462 20.8955 25.8315 20.2968 25.8315Z" fill="#4793FF"/>
<path d="M28.7032 25.8315C28.1046 25.8315 27.6193 25.3462 27.6193 24.7476V23.9526C27.6193 23.354 28.1046 22.8687 28.7032 22.8687C29.3019 22.8687 29.7872 23.354 29.7872 23.9526V24.7476C29.7872 25.3462 29.3019 25.8315 28.7032 25.8315Z" fill="#525CDD"/>
<path d="M30.1367 36.7798H27.752C26.2576 36.7798 25.042 37.9954 25.042 39.4897C25.042 40.9841 26.2576 42.1997 27.752 42.1997H30.1367C31.631 42.1997 32.8467 40.984 32.8467 39.4897C32.8467 37.9955 31.631 36.7798 30.1367 36.7798Z" fill="#00347B"/>
</svg>
