<svg width="37" height="33" viewBox="0 0 37 33" fill="none" xmlns="http://www.w3.org/2000/svg">
<path d="M30.8208 14.8543C30.2222 14.8543 29.7368 14.3689 29.7368 13.7703V3.65311C29.7368 3.05446 30.2222 2.56912 30.8208 2.56912C31.4194 2.56912 31.9048 3.05446 31.9048 3.65311V13.7703C31.9048 14.3689 31.4194 14.8543 30.8208 14.8543Z" fill="#00347B"/>
<path d="M6.17871 14.8543C5.58006 14.8543 5.09473 14.3689 5.09473 13.7703V3.65311C5.09473 3.05446 5.58006 2.56912 6.17871 2.56912C6.77736 2.56912 7.2627 3.05446 7.2627 3.65311V13.7703C7.2627 14.3689 6.77736 14.8543 6.17871 14.8543ZM30.2781 30.646H25.7258C25.1272 30.646 24.6419 30.1606 24.6419 29.562C24.6419 28.9633 25.1272 28.478 25.7258 28.478H30.2781C32.7464 28.478 34.8318 26.4426 34.8318 24.0335V16.229C34.8318 15.6303 35.3172 15.145 35.9158 15.145C36.5144 15.145 36.9998 15.6303 36.9998 16.229V24.0335C36.9998 27.6178 33.9216 30.646 30.2781 30.646Z" fill="#00429D"/>
<path d="M7.1543 9.92175H3.25195C1.45883 9.92175 0 11.3806 0 13.1737V17.5819C0 19.375 1.45883 20.8339 3.25195 20.8339H7.1543C7.75295 20.8339 8.23828 20.3485 8.23828 19.7499V11.0057C8.23828 10.4071 7.75295 9.92175 7.1543 9.92175Z" fill="#4793FF"/>
<path d="M33.748 9.92175H29.8457C29.2471 9.92175 28.7617 10.4071 28.7617 11.0057V19.7499C28.7617 20.3485 29.2471 20.8339 29.8457 20.8339H33.748C35.5412 20.8339 37 19.375 37 17.5819V13.1737C37 11.3806 35.5412 9.92175 33.748 9.92175Z" fill="#525CDD"/>
<path d="M28.5031 4.86162C25.8382 2.24264 22.2858 0.800293 18.5 0.800293C14.7115 0.800293 11.1578 2.24279 8.49389 4.86213C5.81261 7.49845 4.33594 11.0349 4.33594 14.82V16.9153C4.33594 20.8603 7.54547 24.0698 11.4905 24.0698H25.5096C29.4546 24.0698 32.6641 20.8603 32.6641 16.9153V14.82C32.6641 11.0353 31.1864 7.49867 28.5031 4.86162Z" fill="#F0F5FA"/>
<path d="M28.5031 4.86162C25.8382 2.24264 22.2858 0.800293 18.5 0.800293V24.0698H25.5095C29.4546 24.0698 32.6641 20.8603 32.6641 16.9153V14.82C32.6641 11.0353 31.1864 7.49867 28.5031 4.86162Z" fill="#D7E3F0"/>
<path d="M22.9443 7.88232H14.0557C10.4894 7.88232 7.58789 10.7837 7.58789 14.3501C7.58789 17.9164 10.4893 20.8179 14.0557 20.8179H22.9443C26.5106 20.8179 29.4121 17.9165 29.4121 14.3501C29.4121 10.7837 26.5106 7.88232 22.9443 7.88232Z" fill="#D7E3F0"/>
<path d="M22.9443 7.88232H18.5V20.8179H22.9443C26.5106 20.8179 29.4121 17.9165 29.4121 14.3501C29.4121 10.7837 26.5106 7.88232 22.9443 7.88232Z" fill="#A0B6DB"/>
<path fill-rule="evenodd" clip-rule="evenodd" d="M22.9443 10.0503H14.0557C11.6908 10.0503 9.75586 11.9852 9.75586 14.3501C9.75586 16.715 11.6908 18.6499 14.0557 18.6499H22.9443C25.3092 18.6499 27.2441 16.7151 27.2441 14.3501C27.2441 11.9851 25.3092 10.0503 22.9443 10.0503Z" fill="#00429D"/>
<path fill-rule="evenodd" clip-rule="evenodd" d="M22.9443 10.0503H18.5V18.6499H22.9443C25.3092 18.6499 27.2441 16.7151 27.2441 14.3501C27.2441 11.9851 25.3092 10.0503 22.9443 10.0503Z" fill="#00347B"/>
<path d="M14.2969 15.8315C13.6982 15.8315 13.2129 15.3461 13.2129 14.7475V13.9526C13.2129 13.3539 13.6982 12.8686 14.2969 12.8686C14.8955 12.8686 15.3809 13.3539 15.3809 13.9526V14.7475C15.3809 15.3461 14.8956 15.8315 14.2969 15.8315Z" fill="#4793FF"/>
<path d="M22.7031 15.8315C22.1045 15.8315 21.6191 15.3461 21.6191 14.7475V13.9526C21.6191 13.3539 22.1045 12.8686 22.7031 12.8686C23.3018 12.8686 23.7871 13.3539 23.7871 13.9526V14.7475C23.7871 15.3461 23.3018 15.8315 22.7031 15.8315Z" fill="#525CDD"/>
<path d="M24.1367 26.7798H21.752C20.2576 26.7798 19.042 27.9954 19.042 29.4897C19.042 30.9841 20.2576 32.1997 21.752 32.1997H24.1367C25.631 32.1997 26.8467 30.984 26.8467 29.4897C26.8467 27.9955 25.631 26.7798 24.1367 26.7798Z" fill="#00347B"/>
</svg>
