<svg width="129" height="129" viewBox="0 0 129 129" fill="none" xmlns="http://www.w3.org/2000/svg">
<path fill-rule="evenodd" clip-rule="evenodd" d="M84.5571 114.326C87.8688 113.067 93.0371 110.302 96.777 107.788C101.251 104.78 107.399 99.0434 110.461 95.0191C115.96 87.7911 118.836 80.4394 120.489 69.3887C121.601 61.9577 121.68 60.0711 121.783 38.5026C121.892 15.5639 121.991 17.0037 120.174 15.1863C118.42 13.4322 119.457 13.5111 98.095 13.5111C77.4624 13.5111 78.1846 13.469 76.4801 14.7693C76.0447 15.1012 75.4165 15.8358 75.0837 16.4015L74.479 17.4303L74.4183 36.9741L74.3574 56.5178L74.8414 57.6427C75.4096 58.9634 76.969 60.4353 78.1468 60.7625C78.6296 60.8964 82.6533 60.9882 88.0845 60.9889L97.2108 60.9902L97.2108 62.3985C97.2108 65.6049 96.2966 71.0464 95.1522 74.6517C93.6308 79.4448 91.3095 83.3095 87.947 86.6471C85.2037 89.3702 82.0271 91.5328 77.5616 93.7177C74.2963 95.3152 73.8065 95.7116 72.9093 97.4833C72.6717 97.9525 72.5133 98.7888 72.5055 99.6154C72.4943 100.812 72.6435 101.298 73.7465 103.659C77.9439 112.642 78.2872 113.212 80.0406 114.106C81.3263 114.762 83.1726 114.852 84.5571 114.326ZM18.33 114.49C19.5712 114.261 25.4073 111.405 28.5676 109.48C38.1552 103.641 45.6392 95.818 50.0187 87.0574C53.2211 80.6515 54.8074 74.1805 55.9245 62.9633C56.2215 59.9824 56.3066 55.5254 56.3868 38.7283C56.4976 15.5379 56.598 17.0064 54.7779 15.1863C53.024 13.4325 54.0603 13.5111 32.7108 13.5111C11.9013 13.5111 12.6307 13.4658 10.9385 14.8606C10.4946 15.2266 9.87041 16.0498 9.55126 16.6901L8.97122 17.8543L8.97613 37.2386C8.98106 56.2558 8.9898 56.6421 9.43727 57.6308C9.96156 58.7894 10.7613 59.6917 11.8827 60.39C12.6484 60.867 12.8889 60.8809 22.2936 60.9902L31.9207 61.1022L31.8524 62.8939C31.6757 67.5215 30.5586 73.0289 29.007 76.9195C27.4117 80.9198 25.5011 83.8378 22.6018 86.7018C19.9631 89.3082 17.2691 91.1655 13.0403 93.2931C8.98644 95.3327 7.85343 96.2726 7.39453 97.9765C6.85143 99.9932 7.13744 101.009 9.81039 106.566C11.3022 109.667 12.626 112.108 13.1366 112.7C14.4338 114.205 16.332 114.859 18.33 114.49Z" fill="#3E66DF" fill-opacity="0.2"/>
</svg>
