<svg width="40" height="40" viewBox="0 0 40 40" fill="none" xmlns="http://www.w3.org/2000/svg">
<g clip-path="url(#clip0_1209_1280)">
<path d="M37.0375 0.00125122H2.9525C1.325 0.00125122 0 1.2925 0 2.8825V37.1125C0 38.7062 1.325 40 2.9525 40H37.04C38.6712 40 40 38.7062 40 37.1125V2.8825C40 1.2925 38.6712 0.00125122 37.0375 0.00125122Z" fill="#0177B5"/>
<path d="M5.93127 14.9962H11.875V34.0837H5.93127V14.9962ZM8.89877 5.49625C10.795 5.49625 12.3363 7.0375 12.3363 8.93375C12.3363 10.83 10.795 12.375 8.90002 12.375C7.98784 12.373 7.11356 12.0099 6.46843 11.365C5.8233 10.7201 5.45983 9.84593 5.45752 8.93375C5.45752 8.48201 5.54656 8.03471 5.71954 7.61741C5.89253 7.20011 6.14607 6.82099 6.46567 6.50174C6.78526 6.18249 7.16465 5.92937 7.58214 5.75684C7.99963 5.58431 8.44703 5.49576 8.89877 5.49625ZM15.5863 14.9962H21.2763V17.605H21.355C22.1475 16.105 24.0825 14.5225 26.98 14.5225C32.9875 14.5225 34.0963 18.4762 34.0963 23.615V34.085H28.1675V24.8C28.1675 22.5875 28.1275 19.7375 25.085 19.7375C21.9975 19.7375 21.5225 22.15 21.5225 24.6375V34.08H15.595V14.9925L15.5863 14.9962Z" fill="white"/>
</g>
<defs>
<clipPath id="clip0_1209_1280">
<rect width="40" height="40" fill="white"/>
</clipPath>
</defs>
</svg>
