<svg width="40" height="40" viewBox="0 0 40 40" fill="none" xmlns="http://www.w3.org/2000/svg">
<g clip-path="url(#clip0_1209_1278)">
<path d="M12.5792 39.8111C27.6736 39.8111 35.9295 24.4932 35.9295 11.2097C35.9295 10.7745 35.9295 10.3414 35.9056 9.90831C37.5116 8.48595 38.898 6.72476 40 4.70716C38.5022 5.52011 36.9133 6.05326 35.2864 6.28879C36.9996 5.03255 38.2818 3.05672 38.8944 0.72898C37.2834 1.89983 35.521 2.72497 33.6831 3.16879C32.4458 1.55725 30.8093 0.490146 29.0269 0.132599C27.2446 -0.224948 25.4157 0.146997 23.8233 1.19088C22.2309 2.23476 20.9638 3.89238 20.218 5.90723C19.4722 7.92209 19.2893 10.1818 19.6977 12.3368C16.4349 12.1364 13.2429 11.0978 10.3291 9.28844C7.41522 7.47904 4.84459 4.93929 2.78406 1.83405C1.73461 4.04696 1.41316 6.66661 1.88518 9.15962C2.35719 11.6526 3.58717 13.8316 5.32469 15.2528C4.01871 15.2054 2.74121 14.7738 1.6 13.9946V14.1219C1.6005 16.4428 2.2564 18.692 3.45645 20.488C4.6565 22.2841 6.32681 23.5163 8.18406 23.9759C6.97584 24.3795 5.70817 24.4385 4.47844 24.1483C5.00284 26.1457 6.0238 27.8924 7.39853 29.144C8.77326 30.3957 10.433 31.0898 12.1456 31.1292C9.23959 33.9267 5.6497 35.4453 1.95359 35.4408C1.30064 35.4392 0.648324 35.3908 0 35.2957C3.75302 38.2457 8.11987 39.8105 12.5792 39.8032" fill="#1DA1F2"/>
</g>
<defs>
<clipPath id="clip0_1209_1278">
<rect width="40" height="40" fill="white"/>
</clipPath>
</defs>
</svg>
