<svg width="208" height="46" viewBox="0 0 208 46" fill="none" xmlns="http://www.w3.org/2000/svg">
<rect width="208" height="46" rx="12" fill="#021F3F"/>
<path d="M29.0707 21.1445C29.0276 20.7414 28.846 20.4274 28.5259 20.2028C28.2089 19.9781 27.7965 19.8658 27.2887 19.8658C26.9317 19.8658 26.6255 19.9196 26.37 20.0273C26.1146 20.1351 25.9192 20.2812 25.7837 20.4659C25.6483 20.6506 25.5791 20.8614 25.576 21.0984C25.576 21.2953 25.6206 21.4661 25.7099 21.6108C25.8022 21.7554 25.9268 21.8786 26.0838 21.9801C26.2408 22.0786 26.4147 22.1617 26.6055 22.2294C26.7963 22.2971 26.9886 22.354 27.1825 22.4002L28.0689 22.6218C28.4259 22.7049 28.7691 22.8172 29.0984 22.9588C29.4308 23.1004 29.7277 23.2789 29.9893 23.4943C30.254 23.7098 30.4633 23.9698 30.6172 24.2745C30.7711 24.5792 30.848 24.9362 30.848 25.3455C30.848 25.8995 30.7064 26.3873 30.4233 26.8089C30.1402 27.2275 29.7308 27.5553 29.1953 27.7923C28.6629 28.0262 28.0181 28.1431 27.261 28.1431C26.5254 28.1431 25.8868 28.0292 25.3452 27.8015C24.8066 27.5737 24.3849 27.2414 24.0803 26.8043C23.7786 26.3673 23.6155 25.8349 23.5909 25.207H25.2759C25.3005 25.5363 25.4021 25.8103 25.5806 26.0288C25.7591 26.2473 25.9915 26.4104 26.2777 26.5181C26.567 26.6258 26.8902 26.6797 27.2472 26.6797C27.6196 26.6797 27.9458 26.6243 28.2259 26.5135C28.509 26.3996 28.7306 26.2427 28.8906 26.0426C29.0507 25.8395 29.1322 25.6025 29.1353 25.3317C29.1322 25.0855 29.0599 24.8823 28.9183 24.7223C28.7768 24.5592 28.5782 24.4238 28.3228 24.3161C28.0704 24.2053 27.775 24.1068 27.4364 24.0206L26.3608 23.7436C25.5821 23.5436 24.9666 23.2404 24.5142 22.8342C24.0649 22.4248 23.8402 21.8816 23.8402 21.2045C23.8402 20.6475 23.991 20.1597 24.2926 19.7411C24.5973 19.3226 25.0112 18.9979 25.5344 18.767C26.0576 18.5331 26.6501 18.4162 27.3118 18.4162C27.9827 18.4162 28.5705 18.5331 29.0753 18.767C29.5831 18.9979 29.9817 19.3195 30.271 19.7319C30.5603 20.1412 30.7095 20.6121 30.7188 21.1445H29.0707ZM33.9722 23.8452V28H32.301V18.5455H33.9353V22.114H34.0184C34.1846 21.7139 34.4416 21.3984 34.7893 21.1676C35.1402 20.9337 35.5864 20.8168 36.1281 20.8168C36.6205 20.8168 37.0499 20.9199 37.4161 21.1261C37.7823 21.3323 38.0655 21.6339 38.2655 22.0309C38.4687 22.4279 38.5702 22.9126 38.5702 23.4851V28H36.8991V23.7436C36.8991 23.2666 36.776 22.8957 36.5297 22.631C36.2866 22.3633 35.945 22.2294 35.5049 22.2294C35.2094 22.2294 34.9448 22.294 34.7108 22.4233C34.48 22.5495 34.2984 22.7326 34.1661 22.9727C34.0368 23.2127 33.9722 23.5036 33.9722 23.8452ZM42.3142 28.1431C41.8648 28.1431 41.4601 28.0631 41.1001 27.9031C40.743 27.7399 40.4599 27.4999 40.2506 27.1829C40.0444 26.8659 39.9413 26.475 39.9413 26.0103C39.9413 25.6102 40.0152 25.2794 40.1629 25.0178C40.3106 24.7562 40.5122 24.5469 40.7677 24.3899C41.0231 24.233 41.3109 24.1145 41.6309 24.0344C41.9541 23.9513 42.288 23.8913 42.6327 23.8544C43.0482 23.8113 43.3852 23.7728 43.6437 23.739C43.9023 23.7021 44.09 23.6467 44.2069 23.5728C44.327 23.4959 44.387 23.3774 44.387 23.2173V23.1896C44.387 22.8419 44.2839 22.5726 44.0777 22.3817C43.8715 22.1909 43.5745 22.0955 43.1867 22.0955C42.7774 22.0955 42.4527 22.1848 42.2126 22.3633C41.9756 22.5418 41.8156 22.7526 41.7325 22.9957L40.1721 22.7741C40.2952 22.3433 40.4984 21.9832 40.7815 21.6939C41.0647 21.4015 41.4109 21.183 41.8202 21.0384C42.2296 20.8906 42.682 20.8168 43.1775 20.8168C43.5191 20.8168 43.8592 20.8568 44.1977 20.9368C44.5363 21.0168 44.8456 21.1491 45.1256 21.3338C45.4057 21.5154 45.6304 21.7631 45.7996 22.0771C45.972 22.391 46.0582 22.7834 46.0582 23.2543V28H44.4516V27.0259H44.3962C44.2947 27.2229 44.1515 27.4076 43.9669 27.5799C43.7853 27.7492 43.556 27.8861 43.279 27.9908C43.0051 28.0923 42.6835 28.1431 42.3142 28.1431ZM42.7481 26.9151C43.0836 26.9151 43.3744 26.849 43.6206 26.7166C43.8669 26.5812 44.0561 26.4027 44.1885 26.1811C44.3239 25.9595 44.3916 25.7179 44.3916 25.4563V24.6207C44.3393 24.6638 44.25 24.7038 44.1238 24.7408C44.0007 24.7777 43.8622 24.81 43.7084 24.8377C43.5545 24.8654 43.4021 24.89 43.2513 24.9116C43.1005 24.9331 42.9697 24.9516 42.8589 24.967C42.6096 25.0008 42.3865 25.0562 42.1895 25.1332C41.9926 25.2101 41.8372 25.3178 41.7233 25.4563C41.6094 25.5917 41.5525 25.7672 41.5525 25.9826C41.5525 26.2904 41.6648 26.5227 41.8895 26.6797C42.1141 26.8366 42.4004 26.9151 42.7481 26.9151ZM47.7385 28V20.9091H49.3589V22.0909H49.4328C49.5621 21.6816 49.7836 21.3661 50.0976 21.1445C50.4146 20.9199 50.7762 20.8075 51.1824 20.8075C51.2748 20.8075 51.3779 20.8121 51.4917 20.8214C51.6087 20.8275 51.7056 20.8383 51.7826 20.8537V22.391C51.7118 22.3664 51.5995 22.3448 51.4456 22.3263C51.2948 22.3048 51.1486 22.294 51.007 22.294C50.7023 22.294 50.4284 22.3602 50.1853 22.4925C49.9452 22.6218 49.7559 22.8018 49.6175 23.0327C49.479 23.2635 49.4097 23.5297 49.4097 23.8313V28H47.7385ZM55.7401 28.1385C55.0291 28.1385 54.4151 27.9908 53.8981 27.6953C53.3841 27.3968 52.9886 26.9751 52.7116 26.4304C52.4347 25.8826 52.2962 25.2378 52.2962 24.4961C52.2962 23.7667 52.4347 23.1265 52.7116 22.5756C52.9917 22.0217 53.3826 21.5908 53.8842 21.283C54.3859 20.9722 54.9753 20.8168 55.6523 20.8168C56.0894 20.8168 56.5018 20.8875 56.8896 21.0291C57.2804 21.1676 57.6251 21.383 57.9237 21.6754C58.2253 21.9678 58.4622 22.3402 58.6346 22.7926C58.8069 23.242 58.8931 23.7775 58.8931 24.3991V24.9116H53.081V23.7852H57.2912C57.2881 23.4651 57.2189 23.1804 57.0835 22.9311C56.948 22.6787 56.7588 22.4802 56.5156 22.3356C56.2756 22.1909 55.9955 22.1186 55.6754 22.1186C55.3338 22.1186 55.0337 22.2017 54.7752 22.3679C54.5167 22.531 54.3151 22.7464 54.1705 23.0142C54.0289 23.2789 53.9566 23.5697 53.9535 23.8867V24.87C53.9535 25.2824 54.0289 25.6364 54.1797 25.9318C54.3305 26.2242 54.5413 26.4489 54.8121 26.6058C55.083 26.7597 55.4 26.8366 55.7631 26.8366C56.0063 26.8366 56.2263 26.8028 56.4233 26.7351C56.6203 26.6643 56.7911 26.5612 56.9357 26.4258C57.0804 26.2904 57.1896 26.1226 57.2635 25.9226L58.8239 26.098C58.7254 26.5104 58.5376 26.8705 58.2607 27.1783C57.9867 27.483 57.6359 27.7199 57.2081 27.8892C56.7803 28.0554 56.291 28.1385 55.7401 28.1385ZM67.0724 20.9091V22.2017H62.996V20.9091H67.0724ZM64.0024 19.2102H65.6736V25.8672C65.6736 26.0919 65.7074 26.2642 65.7751 26.3842C65.8459 26.5012 65.9382 26.5812 66.0521 26.6243C66.166 26.6674 66.2922 26.6889 66.4307 26.6889C66.5353 26.6889 66.6307 26.6812 66.7169 26.6658C66.8061 26.6504 66.8738 26.6366 66.92 26.6243L67.2016 27.9308C67.1124 27.9615 66.9846 27.9954 66.8184 28.0323C66.6553 28.0692 66.4553 28.0908 66.2183 28.0969C65.7997 28.1093 65.4227 28.0462 65.0873 27.9077C64.7518 27.7661 64.4856 27.5476 64.2886 27.2521C64.0947 26.9567 63.9993 26.5874 64.0024 26.1442V19.2102ZM70.2935 23.8452V28H68.6223V18.5455H70.2566V22.114H70.3397C70.5059 21.7139 70.7628 21.3984 71.1106 21.1676C71.4615 20.9337 71.9077 20.8168 72.4494 20.8168C72.9418 20.8168 73.3712 20.9199 73.7374 21.1261C74.1036 21.3323 74.3868 21.6339 74.5868 22.0309C74.79 22.4279 74.8915 22.9126 74.8915 23.4851V28H73.2203V23.7436C73.2203 23.2666 73.0972 22.8957 72.851 22.631C72.6079 22.3633 72.2663 22.2294 71.8262 22.2294C71.5307 22.2294 71.266 22.294 71.0321 22.4233C70.8013 22.5495 70.6197 22.7326 70.4874 22.9727C70.3581 23.2127 70.2935 23.5036 70.2935 23.8452ZM79.7342 28.1385C79.0233 28.1385 78.4093 27.9908 77.8922 27.6953C77.3783 27.3968 76.9828 26.9751 76.7058 26.4304C76.4288 25.8826 76.2903 25.2378 76.2903 24.4961C76.2903 23.7667 76.4288 23.1265 76.7058 22.5756C76.9859 22.0217 77.3767 21.5908 77.8784 21.283C78.38 20.9722 78.9694 20.8168 79.6465 20.8168C80.0835 20.8168 80.4959 20.8875 80.8837 21.0291C81.2746 21.1676 81.6193 21.383 81.9178 21.6754C82.2194 21.9678 82.4564 22.3402 82.6287 22.7926C82.8011 23.242 82.8873 23.7775 82.8873 24.3991V24.9116H77.0751V23.7852H81.2853C81.2823 23.4651 81.213 23.1804 81.0776 22.9311C80.9422 22.6787 80.7529 22.4802 80.5098 22.3356C80.2697 22.1909 79.9896 22.1186 79.6696 22.1186C79.3279 22.1186 79.0279 22.2017 78.7694 22.3679C78.5108 22.531 78.3092 22.7464 78.1646 23.0142C78.023 23.2789 77.9507 23.5697 77.9476 23.8867V24.87C77.9476 25.2824 78.023 25.6364 78.1738 25.9318C78.3246 26.2242 78.5355 26.4489 78.8063 26.6058C79.0771 26.7597 79.3941 26.8366 79.7573 26.8366C80.0004 26.8366 80.2205 26.8028 80.4174 26.7351C80.6144 26.6643 80.7852 26.5612 80.9299 26.4258C81.0745 26.2904 81.1838 26.1226 81.2576 25.9226L82.818 26.098C82.7195 26.5104 82.5318 26.8705 82.2548 27.1783C81.9809 27.483 81.63 27.7199 81.2022 27.8892C80.7744 28.0554 80.2851 28.1385 79.7342 28.1385ZM91.1173 20.9091V22.2017H86.9255V20.9091H91.1173ZM87.9735 28V20.2397C87.9735 19.7627 88.0719 19.3656 88.2689 19.0487C88.469 18.7317 88.7367 18.4947 89.0722 18.3377C89.4076 18.1808 89.78 18.1023 90.1894 18.1023C90.4787 18.1023 90.7356 18.1254 90.9603 18.1715C91.185 18.2177 91.3512 18.2592 91.4589 18.2962L91.1265 19.5888C91.0557 19.5672 90.9665 19.5457 90.8588 19.5241C90.751 19.4995 90.631 19.4872 90.4987 19.4872C90.1878 19.4872 89.9678 19.5626 89.8385 19.7134C89.7123 19.8612 89.6492 20.0735 89.6492 20.3505V28H87.9735ZM95.2987 28.1385C94.5877 28.1385 93.9737 27.9908 93.4567 27.6953C92.9427 27.3968 92.5472 26.9751 92.2702 26.4304C91.9933 25.8826 91.8548 25.2378 91.8548 24.4961C91.8548 23.7667 91.9933 23.1265 92.2702 22.5756C92.5503 22.0217 92.9412 21.5908 93.4428 21.283C93.9445 20.9722 94.5339 20.8168 95.2109 20.8168C95.648 20.8168 96.0604 20.8875 96.4482 21.0291C96.839 21.1676 97.1837 21.383 97.4822 21.6754C97.7839 21.9678 98.0208 22.3402 98.1932 22.7926C98.3655 23.242 98.4517 23.7775 98.4517 24.3991V24.9116H92.6396V23.7852H96.8498C96.8467 23.4651 96.7775 23.1804 96.642 22.9311C96.5066 22.6787 96.3174 22.4802 96.0742 22.3356C95.8342 22.1909 95.5541 22.1186 95.234 22.1186C94.8924 22.1186 94.5923 22.2017 94.3338 22.3679C94.0753 22.531 93.8737 22.7464 93.729 23.0142C93.5875 23.2789 93.5152 23.5697 93.5121 23.8867V24.87C93.5121 25.2824 93.5875 25.6364 93.7383 25.9318C93.8891 26.2242 94.0999 26.4489 94.3707 26.6058C94.6416 26.7597 94.9586 26.8366 95.3217 26.8366C95.5649 26.8366 95.7849 26.8028 95.9819 26.7351C96.1789 26.6643 96.3497 26.5612 96.4943 26.4258C96.639 26.2904 96.7482 26.1226 96.8221 25.9226L98.3825 26.098C98.284 26.5104 98.0962 26.8705 97.8192 27.1783C97.5453 27.483 97.1945 27.7199 96.7667 27.8892C96.3389 28.0554 95.8496 28.1385 95.2987 28.1385ZM103.005 28.1385C102.294 28.1385 101.68 27.9908 101.163 27.6953C100.649 27.3968 100.253 26.9751 99.9763 26.4304C99.6993 25.8826 99.5608 25.2378 99.5608 24.4961C99.5608 23.7667 99.6993 23.1265 99.9763 22.5756C100.256 22.0217 100.647 21.5908 101.149 21.283C101.651 20.9722 102.24 20.8168 102.917 20.8168C103.354 20.8168 103.766 20.8875 104.154 21.0291C104.545 21.1676 104.89 21.383 105.188 21.6754C105.49 21.9678 105.727 22.3402 105.899 22.7926C106.072 23.242 106.158 23.7775 106.158 24.3991V24.9116H100.346V23.7852H104.556C104.553 23.4651 104.484 23.1804 104.348 22.9311C104.213 22.6787 104.023 22.4802 103.78 22.3356C103.54 22.1909 103.26 22.1186 102.94 22.1186C102.598 22.1186 102.298 22.2017 102.04 22.3679C101.781 22.531 101.58 22.7464 101.435 23.0142C101.294 23.2789 101.221 23.5697 101.218 23.8867V24.87C101.218 25.2824 101.294 25.6364 101.444 25.9318C101.595 26.2242 101.806 26.4489 102.077 26.6058C102.348 26.7597 102.665 26.8366 103.028 26.8366C103.271 26.8366 103.491 26.8028 103.688 26.7351C103.885 26.6643 104.056 26.5612 104.2 26.4258C104.345 26.2904 104.454 26.1226 104.528 25.9226L106.089 26.098C105.99 26.5104 105.802 26.8705 105.525 27.1783C105.251 27.483 104.901 27.7199 104.473 27.8892C104.045 28.0554 103.556 28.1385 103.005 28.1385ZM110.203 28.1246C109.646 28.1246 109.147 27.9815 108.707 27.6953C108.267 27.4091 107.919 26.9936 107.664 26.4489C107.408 25.9041 107.281 25.2424 107.281 24.4638C107.281 23.6759 107.41 23.0111 107.669 22.4695C107.93 21.9247 108.282 21.5138 108.726 21.2369C109.169 20.9568 109.663 20.8168 110.208 20.8168C110.623 20.8168 110.965 20.8875 111.232 21.0291C111.5 21.1676 111.713 21.3353 111.869 21.5323C112.026 21.7262 112.148 21.9093 112.234 22.0817H112.303V18.5455H113.979V28H112.336V26.8828H112.234C112.148 27.0552 112.023 27.2383 111.86 27.4322C111.697 27.623 111.482 27.7861 111.214 27.9215C110.946 28.0569 110.609 28.1246 110.203 28.1246ZM110.669 26.7536C111.023 26.7536 111.325 26.6581 111.574 26.4673C111.823 26.2734 112.013 26.0041 112.142 25.6594C112.271 25.3147 112.336 24.9131 112.336 24.4545C112.336 23.996 112.271 23.5974 112.142 23.2589C112.016 22.9203 111.828 22.6572 111.579 22.4695C111.332 22.2817 111.029 22.1879 110.669 22.1879C110.297 22.1879 109.986 22.2848 109.737 22.4787C109.487 22.6726 109.3 22.9403 109.173 23.282C109.047 23.6236 108.984 24.0144 108.984 24.4545C108.984 24.8977 109.047 25.2932 109.173 25.641C109.303 25.9857 109.492 26.258 109.741 26.4581C109.994 26.6551 110.303 26.7536 110.669 26.7536ZM115.834 28V18.5455H117.505V22.0817H117.574C117.66 21.9093 117.782 21.7262 117.939 21.5323C118.096 21.3353 118.308 21.1676 118.576 21.0291C118.844 20.8875 119.185 20.8168 119.601 20.8168C120.149 20.8168 120.643 20.9568 121.083 21.2369C121.526 21.5138 121.877 21.9247 122.135 22.4695C122.397 23.0111 122.528 23.6759 122.528 24.4638C122.528 25.2424 122.4 25.9041 122.145 26.4489C121.889 26.9936 121.541 27.4091 121.101 27.6953C120.661 27.9815 120.163 28.1246 119.606 28.1246C119.199 28.1246 118.862 28.0569 118.595 27.9215C118.327 27.7861 118.111 27.623 117.948 27.4322C117.788 27.2383 117.664 27.0552 117.574 26.8828H117.477V28H115.834ZM117.473 24.4545C117.473 24.9131 117.537 25.3147 117.667 25.6594C117.799 26.0041 117.988 26.2734 118.234 26.4673C118.484 26.6581 118.785 26.7536 119.139 26.7536C119.509 26.7536 119.818 26.6551 120.067 26.4581C120.316 26.258 120.504 25.9857 120.63 25.641C120.76 25.2932 120.824 24.8977 120.824 24.4545C120.824 24.0144 120.761 23.6236 120.635 23.282C120.509 22.9403 120.321 22.6726 120.072 22.4787C119.823 22.2848 119.512 22.1879 119.139 22.1879C118.782 22.1879 118.479 22.2817 118.23 22.4695C117.981 22.6572 117.791 22.9203 117.662 23.2589C117.536 23.5974 117.473 23.996 117.473 24.4545ZM125.989 28.1431C125.54 28.1431 125.135 28.0631 124.775 27.9031C124.418 27.7399 124.135 27.4999 123.925 27.1829C123.719 26.8659 123.616 26.475 123.616 26.0103C123.616 25.6102 123.69 25.2794 123.838 25.0178C123.985 24.7562 124.187 24.5469 124.442 24.3899C124.698 24.233 124.986 24.1145 125.306 24.0344C125.629 23.9513 125.963 23.8913 126.308 23.8544C126.723 23.8113 127.06 23.7728 127.319 23.739C127.577 23.7021 127.765 23.6467 127.882 23.5728C128.002 23.4959 128.062 23.3774 128.062 23.2173V23.1896C128.062 22.8419 127.959 22.5726 127.752 22.3817C127.546 22.1909 127.249 22.0955 126.862 22.0955C126.452 22.0955 126.127 22.1848 125.887 22.3633C125.65 22.5418 125.49 22.7526 125.407 22.9957L123.847 22.7741C123.97 22.3433 124.173 21.9832 124.456 21.6939C124.739 21.4015 125.086 21.183 125.495 21.0384C125.904 20.8906 126.357 20.8168 126.852 20.8168C127.194 20.8168 127.534 20.8568 127.873 20.9368C128.211 21.0168 128.52 21.1491 128.8 21.3338C129.08 21.5154 129.305 21.7631 129.474 22.0771C129.647 22.391 129.733 22.7834 129.733 23.2543V28H128.126V27.0259H128.071C127.969 27.2229 127.826 27.4076 127.642 27.5799C127.46 27.7492 127.231 27.8861 126.954 27.9908C126.68 28.0923 126.358 28.1431 125.989 28.1431ZM126.423 26.9151C126.758 26.9151 127.049 26.849 127.295 26.7166C127.542 26.5812 127.731 26.4027 127.863 26.1811C127.999 25.9595 128.066 25.7179 128.066 25.4563V24.6207C128.014 24.6638 127.925 24.7038 127.799 24.7408C127.676 24.7777 127.537 24.81 127.383 24.8377C127.229 24.8654 127.077 24.89 126.926 24.9116C126.775 24.9331 126.645 24.9516 126.534 24.967C126.284 25.0008 126.061 25.0562 125.864 25.1332C125.667 25.2101 125.512 25.3178 125.398 25.4563C125.284 25.5917 125.227 25.7672 125.227 25.9826C125.227 26.2904 125.34 26.5227 125.564 26.6797C125.789 26.8366 126.075 26.9151 126.423 26.9151ZM134.506 28.1385C133.799 28.1385 133.191 27.9831 132.683 27.6722C132.178 27.3614 131.789 26.9321 131.515 26.3842C131.244 25.8333 131.109 25.1993 131.109 24.4822C131.109 23.7621 131.247 23.1265 131.524 22.5756C131.801 22.0217 132.192 21.5908 132.697 21.283C133.205 20.9722 133.805 20.8168 134.497 20.8168C135.073 20.8168 135.582 20.9229 136.025 21.1353C136.471 21.3446 136.827 21.6416 137.092 22.0263C137.356 22.4079 137.507 22.8542 137.544 23.3651H135.947C135.882 23.0234 135.728 22.7388 135.485 22.511C135.245 22.2802 134.923 22.1648 134.52 22.1648C134.179 22.1648 133.879 22.2571 133.62 22.4418C133.362 22.6233 133.16 22.8849 133.015 23.2266C132.874 23.5682 132.803 23.9775 132.803 24.4545C132.803 24.9377 132.874 25.3532 133.015 25.701C133.157 26.0457 133.355 26.3119 133.611 26.4996C133.869 26.6843 134.172 26.7766 134.52 26.7766C134.766 26.7766 134.987 26.7305 135.18 26.6381C135.377 26.5427 135.542 26.4058 135.674 26.2273C135.807 26.0488 135.897 25.8318 135.947 25.5763H137.544C137.504 26.078 137.356 26.5227 137.101 26.9105C136.845 27.2952 136.498 27.5968 136.058 27.8153C135.617 28.0308 135.1 28.1385 134.506 28.1385ZM140.44 25.7749L140.435 23.7575H140.703L143.251 20.9091H145.204L142.069 24.3991H141.723L140.44 25.7749ZM138.916 28V18.5455H140.587V28H138.916ZM143.367 28L141.058 24.7731L142.185 23.5959L145.366 28H143.367Z" fill="white"/>
<path d="M181 23L174 16V20C167 21 164 26 163 31C165.5 27.5 169 25.9 174 25.9V30L181 23Z" fill="white"/>
</svg>
