<svg width="40" height="40" viewBox="0 0 40 40" fill="none" xmlns="http://www.w3.org/2000/svg">
<g clip-path="url(#clip0_1209_1283)">
<path d="M0.853634 19.7607C0.852621 23.1214 1.73765 26.403 3.42043 29.2953L0.692627 39.1779L10.8851 36.5261C13.6931 38.0447 16.8549 38.8463 20.0726 38.8471H20.0811C30.6772 38.8471 39.3027 30.2915 39.3072 19.7757C39.3092 14.6799 37.3111 9.88837 33.6808 6.28344C30.0512 2.67872 25.2238 0.692488 20.0803 0.690277C9.483 0.690277 0.858089 9.24531 0.853634 19.7607Z" fill="url(#paint0_linear_1209_1283)"/>
<path d="M0.167285 19.7544C0.16607 23.2362 1.0829 26.6351 2.82562 29.6309L0 39.8678L10.558 37.1209C13.4671 38.6948 16.7423 39.5245 20.0752 39.5257H20.0837C31.06 39.5257 39.9953 30.6624 40 19.7703C40.0018 14.4914 37.9318 9.52765 34.172 5.79352C30.4115 2.05978 25.4114 0.0022105 20.0837 0C9.1055 0 0.171741 8.86189 0.167285 19.7544ZM6.45466 29.1151L6.06054 28.4941C4.40329 25.8795 3.52858 22.8582 3.5298 19.7556C3.53344 10.7022 10.959 3.33665 20.09 3.33665C24.5117 3.33846 28.6675 5.04878 31.7931 8.15212C34.9187 11.2557 36.6385 15.3813 36.6373 19.7691C36.6332 28.8227 29.2075 36.1893 20.0837 36.1893H20.0773C17.1064 36.1877 14.1929 35.3961 11.6518 33.9002L11.0471 33.5443L4.78181 35.1743L6.45466 29.1151Z" fill="url(#paint1_linear_1209_1283)"/>
<path d="M15.1059 11.4959C14.7331 10.6736 14.3408 10.6571 13.9862 10.6426C13.6959 10.6304 13.364 10.6312 13.0325 10.6312C12.7005 10.6312 12.1614 10.755 11.7055 11.2489C11.2492 11.7431 9.96362 12.9375 9.96362 15.3669C9.96362 17.7964 11.7471 20.144 11.9956 20.4737C12.2445 20.8029 15.4383 25.9477 20.4963 27.9269C24.7001 29.5718 25.5556 29.2446 26.4679 29.1622C27.3803 29.08 29.4122 27.9681 29.8268 26.8151C30.2416 25.6622 30.2416 24.6739 30.1172 24.4675C29.9929 24.2617 29.6609 24.1381 29.1633 23.8914C28.6655 23.6444 26.219 22.4497 25.763 22.2849C25.3067 22.1204 24.9749 22.0382 24.643 22.5325C24.3113 23.0263 23.3582 24.1381 23.0678 24.4675C22.7775 24.7975 22.4871 24.8387 21.9895 24.5917C21.4917 24.3439 19.8889 23.823 17.9876 22.1411C16.5082 20.8322 15.5096 19.216 15.2191 18.7216C14.9289 18.2279 15.1881 17.9604 15.4377 17.7142C15.6612 17.493 15.9355 17.1377 16.1844 16.8495C16.4327 16.5612 16.5155 16.3554 16.6814 16.026C16.8474 15.6964 16.7644 15.4081 16.64 15.1611C16.5155 14.9141 15.5484 12.4723 15.1059 11.4959Z" fill="white"/>
</g>
<defs>
<linearGradient id="paint0_linear_1209_1283" x1="1931.42" y1="3849.46" x2="1931.42" y2="0.692112" gradientUnits="userSpaceOnUse">
<stop stop-color="#1FAF38"/>
<stop offset="1" stop-color="#60D669"/>
</linearGradient>
<linearGradient id="paint1_linear_1209_1283" x1="2000" y1="3986.78" x2="2000" y2="-0.00522788" gradientUnits="userSpaceOnUse">
<stop stop-color="#F9F9F9"/>
<stop offset="1" stop-color="white"/>
</linearGradient>
<clipPath id="clip0_1209_1283">
<rect width="40" height="40" fill="white"/>
</clipPath>
</defs>
</svg>
