<svg width="40" height="40" viewBox="0 0 40 40" fill="none" xmlns="http://www.w3.org/2000/svg">
<g clip-path="url(#clip0_1209_1288)">
<path d="M20 40C31.0457 40 40 31.0457 40 20C40 8.95431 31.0457 0 20 0C8.95431 0 0 8.95431 0 20C0 31.0457 8.95431 40 20 40Z" fill="#FF4500"/>
<path d="M33.3401 20C33.3441 20.274 33.3101 20.5475 33.2381 20.812C33.1661 21.0765 33.0571 21.33 32.9141 21.564C32.7716 21.798 32.5966 22.011 32.3946 22.1965C32.1926 22.382 31.9656 22.538 31.7201 22.66C31.7256 22.733 31.7301 22.8065 31.7326 22.88C31.7386 23.0266 31.7386 23.1734 31.7326 23.32C31.7301 23.3935 31.7256 23.467 31.7201 23.54C31.7201 28.02 26.5001 31.66 20.0601 31.66C13.6201 31.66 8.40005 28.02 8.40005 23.54C8.39455 23.467 8.39005 23.3935 8.38756 23.32C8.38154 23.1734 8.38154 23.0266 8.38756 22.88C8.39005 22.8065 8.39455 22.733 8.40005 22.66C8.01543 22.4832 7.67382 22.2249 7.39885 21.9031C7.12388 21.5812 6.92213 21.2035 6.80755 20.796C6.69317 20.3883 6.6688 19.9606 6.73615 19.5426C6.80349 19.1245 6.96093 18.7261 7.19755 18.375C7.43397 18.0239 7.74395 17.7284 8.10597 17.5091C8.468 17.2898 8.8734 17.1519 9.29406 17.105C9.71476 17.0578 10.1407 17.1027 10.5423 17.2365C10.944 17.3704 11.3117 17.5899 11.6201 17.88C12.1925 17.492 12.7922 17.1459 13.4146 16.8445C14.0371 16.5435 14.6806 16.2875 15.3401 16.0795C15.9996 15.8715 16.6736 15.712 17.3561 15.6015C18.0386 15.491 18.7286 15.4305 19.4201 15.42L20.9001 8.47998C20.9166 8.39948 20.9491 8.32348 20.9956 8.25548C21.0416 8.18798 21.1011 8.12998 21.1696 8.08548C21.2386 8.04098 21.3156 8.01048 21.3966 7.99548C21.4771 7.98098 21.5601 7.98248 21.6401 7.99998L26.5401 8.97998C27.0346 8.13048 28.0726 7.76648 28.9891 8.12048C29.9056 8.47448 30.4296 9.44198 30.2246 10.403C30.0201 11.364 29.1471 12.034 28.1661 11.9835C27.1846 11.933 26.3851 11.177 26.2801 10.2L22.0001 9.29998L20.7001 15.54C21.3831 15.5545 22.0646 15.6185 22.7386 15.731C24.0883 15.956 25.3985 16.3746 26.6286 16.974C27.2429 17.273 27.835 17.6159 28.4001 18C28.8064 17.6099 29.3169 17.3458 29.8701 17.2395C30.4232 17.1328 30.9954 17.1886 31.5176 17.4C32.0398 17.6113 32.4897 17.9692 32.8131 18.4305C33.1365 18.8918 33.3195 19.4369 33.3401 20ZM13.4921 22.7655C13.5931 23.008 13.7401 23.2285 13.9261 23.414C14.1116 23.6 14.3321 23.747 14.5746 23.848C14.8173 23.9484 15.0774 24 15.3401 24C16.1491 24 16.8781 23.5125 17.1881 22.7655C17.4976 22.018 17.3261 21.158 16.7541 20.586C16.1821 20.014 15.3221 19.8425 14.5746 20.152C13.8276 20.462 13.3401 21.191 13.3401 22C13.3401 22.2625 13.3916 22.5225 13.4921 22.7655ZM24.9471 27.5665C25.0496 27.4665 25.1081 27.33 25.1101 27.187C25.1121 27.0435 25.0566 26.9055 24.9566 26.803C24.8566 26.7005 24.7201 26.642 24.5771 26.64C24.4336 26.638 24.2956 26.6935 24.1801 26.78C23.8793 26.9957 23.5608 27.1855 23.2281 27.3475C22.8952 27.5095 22.5494 27.6432 22.1941 27.747C21.8391 27.8505 21.4756 27.924 21.1081 27.9665C20.7401 28.009 20.3696 28.02 20.0001 28C19.6311 28.0165 19.2611 28.0015 18.8946 27.9555C18.528 27.9099 18.166 27.833 17.8126 27.7255C17.4586 27.6185 17.1151 27.4815 16.7846 27.3165C16.4541 27.1515 16.1381 26.9585 15.8401 26.74C15.7366 26.655 15.6051 26.6115 15.4711 26.618C15.3371 26.6245 15.2106 26.681 15.1156 26.7755C15.0211 26.8705 14.9646 26.997 14.9581 27.131C14.9516 27.265 14.9951 27.3965 15.0801 27.5C15.4316 27.765 15.8051 27.999 16.1966 28.2C16.5881 28.401 16.9966 28.5675 17.4166 28.6985C17.8366 28.8295 18.2671 28.924 18.7036 28.9815C19.1401 29.0385 19.5806 29.058 20.0201 29.04C20.4596 29.058 20.9001 29.0385 21.3366 28.9815C22.2108 28.8665 23.0588 28.6021 23.8436 28.2C24.2351 27.999 24.6086 27.765 24.9601 27.5L24.9471 27.5665ZM24.5801 24.16C24.8511 24.163 25.1201 24.1105 25.3706 24.0065C25.6211 23.902 25.8476 23.748 26.0366 23.5535C26.2256 23.359 26.3726 23.128 26.4696 22.8745C26.5666 22.6213 26.611 22.3509 26.6001 22.08C26.6001 21.271 26.1126 20.542 25.3656 20.232C24.6181 19.9225 23.7581 20.094 23.1861 20.666C22.6141 21.238 22.4426 22.098 22.7521 22.8455C23.0621 23.5925 23.7911 24.08 24.6001 24.08L24.5801 24.16Z" fill="white"/>
</g>
<defs>
<clipPath id="clip0_1209_1288">
<rect width="40" height="40" fill="white"/>
</clipPath>
</defs>
</svg>
