<svg width="82" height="79" viewBox="0 0 82 79" fill="none" xmlns="http://www.w3.org/2000/svg">
<path d="M37.5354 2.66282C38.6259 -0.69338 43.3741 -0.693377 44.4646 2.66283L51.6323 24.723C52.12 26.2239 53.5187 27.2401 55.0969 27.2401L78.2923 27.2401C81.8212 27.2401 83.2885 31.7559 80.4335 33.8301L61.668 47.4641C60.3913 48.3917 59.857 50.0359 60.3447 51.5369L67.5125 73.597C68.603 76.9532 64.7617 79.7441 61.9067 77.6699L43.1412 64.036C41.8644 63.1083 40.1356 63.1083 38.8588 64.036L20.0933 77.6699C17.2383 79.7441 13.397 76.9532 14.4875 73.597L21.6553 51.5369C22.143 50.0359 21.6087 48.3917 20.3319 47.464L1.56646 33.8301C-1.2885 31.7559 0.178757 27.2401 3.70768 27.2401L26.9031 27.2401C28.4813 27.2401 29.88 26.2239 30.3677 24.723L37.5354 2.66282Z" fill="#FFEA09"/>
</svg>
