<svg width="46" height="48" viewBox="0 0 46 48" fill="none" xmlns="http://www.w3.org/2000/svg">
<path d="M2.97985 36.2952H43.0202C44.8969 32.9669 45.969 29.1244 45.969 25.0311C45.969 12.3457 35.6855 2.06213 23.0001 2.06213C10.3147 2.06213 0.0311279 12.3457 0.0311279 25.0311C0.0310342 29.1245 1.10307 32.9669 2.97985 36.2952Z" fill="#FFC839"/>
<path d="M21.0116 32.3267C21.0116 32.3267 22.4036 32.9374 23 33.8134C23.5963 32.9374 24.9884 32.3267 24.9884 32.3267L30.5937 29.4758C30.1195 29.3292 29.64 29.1999 29.1564 29.0881C28.2046 28.1363 27.9633 26.3319 27.9199 25.0695C27.4232 25.648 26.902 26.1319 26.4039 26.5186C25.4334 27.2723 24.2358 27.6816 23.0024 27.6816C21.7691 27.6816 20.5715 27.2723 19.6011 26.5186C19.103 26.1318 18.5817 25.6479 18.085 25.0695C18.0416 26.3319 17.8002 28.1363 16.8485 29.0881C16.3638 29.2001 15.8833 29.3297 15.408 29.4767L21.0116 32.3267Z" fill="#FFAA7B"/>
<path d="M22.7695 27.6766C21.6189 27.6285 20.5103 27.2246 19.6011 26.5186C19.103 26.1318 18.5816 25.6479 18.0849 25.0693C18.0472 26.1674 17.8591 27.675 17.1846 28.6754C18.1439 30.6117 19.3869 32.2318 20.6441 31.3844C22.1945 30.3394 22.6543 28.7861 22.7695 27.6766Z" fill="#FC9460"/>
<path d="M21.2087 32.0295L18.7217 30.7645C17.6635 31.0864 16.2184 31.9267 16.1674 34.12C15.4528 34.2438 11.8544 35.0353 11.8544 38.3973V45.1175C15.155 46.9534 18.955 48 23 48C23.0803 48 23.16 47.9977 23.24 47.997V34.0608C23.24 32.9201 21.2087 32.0295 21.2087 32.0295Z" fill="#7E6DD1"/>
<path d="M11.9949 45.1947V38.3973C11.9949 34.7652 16.3066 34.2406 16.3066 34.2406C16.3066 31.9347 17.855 31.1331 18.8982 30.8544L15.9008 29.3298C9.48296 31.4226 6.41771 32.2595 4.81946 33.4004C6.48333 34.536 9.10008 36.8949 9.10008 40.504V43.317C10.0166 44.0145 10.9843 44.6421 11.9949 45.1947Z" fill="#7255CE"/>
<path d="M30.0992 29.3298L24.7913 32.0296C24.7913 32.0296 22.76 32.9202 22.76 34.0608V47.9971C22.8401 47.9979 22.9198 48.0001 23 48.0001C24.0774 48.0001 25.1371 47.9247 26.175 47.7811L26.1744 47.7807L32.7164 45.8478V45.848C34.197 45.1556 35.5994 44.3071 36.8999 43.3169V40.504C36.8999 36.8949 39.5167 34.5361 41.1805 33.4004C39.5823 32.2595 36.5172 31.4226 30.0992 29.3298Z" fill="#9589E8"/>
<path d="M28.4579 26.918C28.4329 26.9041 28.4049 26.8964 28.3763 26.8954C28.3477 26.8944 28.3193 26.9001 28.2933 26.9121C28.2674 26.9242 28.2446 26.9421 28.2269 26.9646C28.2092 26.9871 28.197 27.0134 28.1913 27.0414C28.0309 27.8271 27.3349 30.302 24.7503 31.7708C24.4958 31.9155 24.4348 32.2551 24.6273 32.4757L27.239 35.4669C27.7813 36.0915 28.7796 35.9791 29.171 35.2505C29.8327 34.0186 30.7545 32.1436 31.4368 30.1278C31.559 29.7668 31.4722 29.3677 31.2147 29.0869C30.4194 28.2193 29.4883 27.4867 28.4579 26.918Z" fill="#B5B0F7"/>
<path d="M21.2512 31.7709C20.6294 31.4175 20.1178 31.0055 19.6957 30.5732C19.0669 30.6266 16.3316 31.0301 16.175 33.9749C16.3858 34.404 16.6044 34.8294 16.8305 35.2506C17.222 35.9792 18.2203 36.0917 18.7625 35.4671L21.3741 32.4758C21.5667 32.2551 21.5057 31.9155 21.2512 31.7709Z" fill="#9589E8"/>
<path d="M17.8102 27.0416C17.8045 27.0135 17.7924 26.9872 17.7746 26.9647C17.7569 26.9422 17.7341 26.9243 17.7082 26.9122C17.6822 26.9002 17.6538 26.8945 17.6252 26.8955C17.5966 26.8965 17.5686 26.9043 17.5436 26.9181C16.5132 27.4869 15.5821 28.2194 14.7869 29.087C14.5294 29.3679 14.4425 29.767 14.5647 30.1279C15.0805 31.6518 15.733 33.0946 16.3066 34.2405C16.3067 30.7643 19.8273 30.7056 19.8273 30.7056L19.8274 30.7053C18.3913 29.3115 17.9359 27.6575 17.8102 27.0416Z" fill="#7E6DD1"/>
<path d="M36.7123 43.4589C39.2911 41.5366 41.4396 39.0965 43.0201 36.2952C42.8433 35.7692 42.6519 35.2866 42.444 34.8628C42.1446 34.2521 41.729 33.7732 41.088 33.3356C39.4308 34.4452 36.7123 36.8258 36.7123 40.5038V43.4589Z" fill="#B5B0F7"/>
<path d="M4.91189 33.3356C4.27092 33.7733 3.85523 34.2521 3.55589 34.8628C3.34814 35.2866 3.1567 35.7692 2.9798 36.2952C4.56026 39.0965 6.70879 41.5366 9.28758 43.4589V40.5038C9.28767 36.8258 6.56911 34.4452 4.91189 33.3356Z" fill="#7E6DD1"/>
<path d="M31.5914 39.4336H27.2321C26.6133 39.4336 26.1071 39.9398 26.1071 40.5586V47.4023C26.1071 47.5351 26.1315 47.6621 26.1744 47.7806C28.4396 47.468 30.645 46.8164 32.7164 45.8478V40.5586C32.7164 39.9398 32.2102 39.4336 31.5914 39.4336Z" fill="#B5B0F7"/>
<path d="M38.7019 8.26929C36.5213 9.88122 33.8081 12.5987 34.9583 16.0034C36.7396 21.2763 28.6771 24.6015 37.6771 28.4232C41.2756 29.9513 43.3665 31.5456 44.5813 32.9092C45.4787 30.4519 45.9691 27.7989 45.9691 25.031C45.969 18.4188 43.1738 12.4601 38.7019 8.26929ZM7.29813 8.26929C9.47876 9.88122 12.192 12.5987 11.0418 16.0034C9.26051 21.2763 17.323 24.6015 8.32301 28.4232C4.72451 29.9513 2.63351 31.5456 1.41879 32.9092C0.521412 30.4519 0.0310059 27.7989 0.0310059 25.031C0.0310996 18.4188 2.82626 12.4601 7.29813 8.26929Z" fill="#FFDD40"/>
<path d="M14.4568 14.7634H31.6384C31.6689 13.5254 31.8753 10.2486 33.1692 7.91446C33.2582 7.75416 33.312 7.57671 33.327 7.39396C33.342 7.2112 33.3178 7.02735 33.256 6.85471C32.7865 5.54577 31.3842 2.48577 28.3259 1.66958C28.1629 1.62608 28.1199 1.41533 28.2525 1.31118L28.7108 0.951082C28.9186 0.78777 28.8388 0.456082 28.5793 0.406114C26.3228 -0.0290739 18.8289 -1.07045 16.5011 3.71614C16.3621 4.0018 16.1003 4.20749 15.7928 4.28708C15.1155 4.46239 13.8972 4.99077 13.1031 6.57411C13.026 6.72733 12.98 6.89434 12.9679 7.06546C12.9558 7.23659 12.9778 7.40841 13.0326 7.57096C13.4185 8.70824 14.3587 11.7621 14.4568 14.7634Z" fill="#56415E"/>
<path d="M22.1447 7.1974C19.4005 3.0153 24.2007 0.00170898 24.2007 0.00170898C21.2896 0.0393965 17.9266 0.784896 16.5011 3.71618C16.3621 4.00183 16.1003 4.20752 15.7928 4.28712C15.1155 4.46243 13.8972 4.9908 13.1031 6.57415C13.026 6.72736 12.98 6.89438 12.9679 7.0655C12.9558 7.23662 12.9778 7.40844 13.0326 7.57099C13.4185 8.70827 14.3587 11.7621 14.4568 14.7634H18.4561C20.9874 12.713 23.7754 9.68252 22.1447 7.1974Z" fill="#45304C"/>
<path d="M32.3053 14.2626C31.9207 13.9101 31.0607 14.0888 30.7294 14.3046C30.802 14.7566 30.8061 15.219 30.7434 15.6755L30.3524 18.5229C30.3524 18.7524 30.3452 18.9776 30.3319 19.1988C31.2853 19.4864 31.8525 18.6305 31.9323 18.0432C31.9666 17.7903 32.0229 17.541 32.1007 17.298C32.3543 16.5061 33.2691 15.1458 32.3053 14.2626Z" fill="#FFAA7B"/>
<path d="M13.6947 14.2626C14.0794 13.9101 14.9393 14.0888 15.2707 14.3046C15.1984 14.7584 15.1937 15.2204 15.2567 15.6755L15.6476 18.5229C15.6476 18.7524 15.6548 18.9776 15.6682 19.1988C14.7148 19.4864 14.1475 18.6305 14.0678 18.0432C14.0335 17.7903 13.9772 17.541 13.8994 17.298C13.6458 16.5061 12.731 15.1458 13.6947 14.2626Z" fill="#FC9460"/>
<path d="M30.5879 13.425C30.4998 13.1954 30.3889 12.9629 30.2492 12.7436C30.0124 12.3722 29.9083 11.9329 29.9401 11.4949C30.0313 10.2351 29.9823 7.77102 28.3285 7.02683C26.9235 6.39458 25.1999 6.76068 24.1007 7.12612C23.4132 7.35435 22.6717 7.36296 21.979 7.15077C20.7267 8.1119 20.6972 10.2759 20.7819 11.4282C20.815 11.8693 20.7049 12.3093 20.4678 12.6827C20.3307 12.8979 20.2209 13.1257 20.1332 13.3512C19.8484 14.0826 19.7654 14.876 19.8721 15.6528L20.2682 18.5385C20.2682 22.6871 22.4828 25.5069 24.3665 26.9698C24.6446 27.1857 24.9421 27.3714 25.2527 27.53C25.662 27.3488 26.0477 27.1185 26.4014 26.8441C28.2605 25.4004 30.4461 22.6174 30.4461 18.5229L30.8371 15.6756C30.9414 14.9165 30.8624 14.1412 30.5879 13.425Z" fill="#FFC7AB"/>
<path d="M24.3799 26.8441C22.5207 25.4004 20.3351 22.6173 20.3351 18.5229L19.9441 15.6749C19.8388 14.9083 19.9208 14.1253 20.2017 13.4034C20.2884 13.1808 20.3966 12.956 20.5321 12.7436C20.7661 12.3751 20.8748 11.9408 20.8421 11.5055C20.7559 10.3321 20.7895 8.09593 22.1447 7.19724C22.0621 7.17653 21.9802 7.15276 21.8994 7.12599C20.8001 6.76056 19.0766 6.39446 17.6716 7.02671C16.013 7.77296 15.9685 10.249 16.0609 11.5055C16.0936 11.9408 15.9849 12.3751 15.7509 12.7436C15.6155 12.956 15.5071 13.1808 15.4205 13.4034C15.1395 14.1253 15.0576 14.9083 15.1629 15.6749L15.5539 18.5229C15.5539 22.6173 17.7396 25.4003 19.5986 26.8441C20.569 27.5976 21.7666 28.0069 23 28.0069C23.8272 28.0068 24.6439 27.8221 25.3906 27.4663C25.0323 27.2958 24.6934 27.0872 24.3799 26.8441Z" fill="#FFAA7B"/>
</svg>
